<svg width="1280" height="121" viewBox="0 0 1280 121" fill="none" xmlns="http://www.w3.org/2000/svg">
<path fill-rule="evenodd" clip-rule="evenodd" d="M0 81.5546L36 84.732C71 87.9095 142 94.7939 213 81.5546C284 67.7856 356 33.8928 427 30.7154C498 27.0083 569 54.0167 640 70.9631C711 87.9095 782 94.7939 853 104.856C924 115.447 996 128.687 1067 115.447C1138 101.678 1209 60.9011 1244 40.7773L1280 20.1239V0H1244C1209 0 1138 0 1067 0C996 0 924 0 853 0C782 0 711 0 640 0C569 0 498 0 427 0C356 0 284 0 213 0C142 0 71 0 36 0H0V81.5546Z" fill="#F6F6F6"/>
</svg>
